# xmcd
#
# Track frame offsets:
# 150
# 14422
# 26839
# 46039
# 58085
# 71390
# 83639
# 104000
# 118504
# 134711
# 147348
# 160165
# 176757
# 188986
#
# Disc length: 2671 seconds
#
#
# Revision: 1
# Processed by: cddbd v1.5.1PL0 Copyright (c) Steve Scherf et al.
# Submitted via: FreeRIP 2.52 
#
DISCID=c70a6d0e
DTITLE=get up and dance special 39 honky tonk - get up and dance special 39 honky tonk
DYEAR=2005
DGENRE=Country
TTITLE0=honky tonk truth - brooks and dunn
TTITLE1=honky tonk man - dwight yoakam
TTITLE2=honky tonk women - travis tritt
TTITLE3=honky tonk girls - hank williams lll
TTITLE4=little miss honky tonk - brooks and dunn
TTITLE5=honky tonk crowd - rick trevino
TTITLE6=honky tonk song/honky tonk - don wise
TTITLE7=trashy women - confederate railfood
TTITLE8=honky tonk - preston shanon
TTITLE9=who's counting - wesley dennis
TTITLE10=where there's smoke - archer park
TTITLE11=don't touch my hat - lyle lovett
TTITLE12=she don't get the blues - alan jackson
TTITLE13=l hope heaven has a honky tonk - tracy lawrence
EXTD=YEAR: 2005
EXTT0=
EXTT1=
EXTT2=
EXTT3=
EXTT4=
EXTT5=
EXTT6=
EXTT7=
EXTT8=
EXTT9=
EXTT10=
EXTT11=
EXTT12=
EXTT13=
PLAYORDER=
